mtllib new-3.mtl
v -0.178520 -0.169523 0.636083
v 0.152841 -0.169523 0.636083
v 0.173894 -0.169523 0.616980
v -0.178520 -0.169523 0.364221
v 0.173192 -0.169523 0.622313
v 0.173894 -0.169523 0.383323
v 0.157816 -0.169523 0.635428
v 0.162452 -0.169523 0.633507
v 0.152841 -0.169523 0.364221
v 0.171087 -0.169523 0.627395
v 0.172978 -0.170439 0.616920
v 0.167086 -0.170439 0.631105
v 0.166433 -0.170439 0.630453
v 0.166433 -0.169523 0.630453
v 0.172300 -0.170439 0.622074
v 0.172978 -0.170439 0.383383
v 0.170287 -0.170439 0.626933
v 0.157816 -0.169523 0.364876
v 0.162452 -0.169523 0.366796
v 0.172300 -0.170439 0.378229
v 0.169488 -0.170439 0.626471
v 0.166433 -0.169523 0.369851
v 0.171408 -0.170439 0.621835
v 0.172063 -0.170439 0.383443
v 0.169488 -0.169523 0.373832
v 0.169488 -0.169523 0.626471
v 0.172063 -0.170439 0.616860
v 0.171408 -0.169523 0.378468
v 0.171408 -0.169523 0.621835
v 0.172063 -0.169523 0.383443
v 0.172063 -0.169523 0.616860
vn 0.000000 -1.000000 0.000000
vn 0.000000 1.000000 0.000000
vn -0.707107 0.000000 -0.707107
vn -0.485107 0.864740 0.129984
vn -0.965926 0.000000 -0.258819
vn -0.866025 0.000000 -0.500000
vn 0.707107 0.000000 0.707107
vn 0.866025 0.000000 0.500000
vn -0.485107 0.864740 -0.129984
vn -0.680072 0.710138 -0.182225
vn 0.997859 0.000000 -0.065403
vn 0.965926 0.000000 0.258819
vn 0.680072 -0.710138 0.182225
vn 0.503563 -0.863328 0.033005
vn 0.704836 -0.707864 0.046197
vn 0.503563 -0.863328 -0.033005
vn 0.704836 -0.707864 -0.046197
vn -0.997859 0.000000 -0.065403
vn 0.997859 0.000000 0.065403
vn 0.609736 -0.710138 0.352031
vn 0.485107 -0.864740 0.129984
vn -0.609736 0.710138 -0.352031
vn 0.485107 -0.864740 -0.129984
vn -0.997859 0.000000 0.065403
vn 0.434935 -0.864740 0.251110
vn -0.434935 0.864740 -0.251110
vn 0.355123 -0.864740 0.355123
vn -0.355123 0.864740 -0.355123
vn -0.503563 0.863328 -0.033005
vn -0.704836 0.707864 -0.046197
vn -0.704836 0.707864 0.046197
vn -0.503563 0.863328 0.033005
usemtl material-0
f 4//2 1//2 2//2
f 4//2 2//2 9//2
f 11//29 5//10 3//30
f 9//2 2//2 7//2
f 15//9 10//22 5//10
f 5//10 11//29 15//9
f 11//29 6//31 16//32
f 18//2 7//2 8//2
f 19//2 8//2 14//2
f 9//2 7//2 18//2
f 10//22 15//9 17//26
f 20//4 15//9 11//29
f 20//4 11//29 16//32
f 21//2 12//28 17//26
f 21//8 14//7 13//7
f 18//2 8//2 19//2
f 19//2 14//2 22//2
f 23//2 17//26 15//9
f 20//4 24//2 15//9
f 21//2 17//26 23//2
f 14//7 21//8 26//8
f 22//2 14//2 26//2
f 23//2 15//9 27//2
f 27//2 15//9 24//2
f 23//12 26//8 21//8
f 22//2 26//2 25//2
f 27//19 29//12 23//12
f 24//11 31//19 27//19
f 25//2 29//2 28//2
f 26//8 23//12 29//12
f 25//2 26//2 29//2
f 29//12 27//19 31//19
f 31//19 24//11 30//11
f 28//2 29//2 31//2
f 28//2 31//2 30//2
usemtl material-1
f 3//15 5//13 11//14
f 5//13 10//20 15//21
f 15//21 11//14 5//13
f 16//16 6//17 11//14
f 17//25 15//21 10//20
f 11//14 15//21 20//23
f 16//16 11//14 20//23
f 17//25 12//27 21//1
f 13//3 14//3 21//6
f 15//21 17//25 23//1
f 15//21 24//1 20//23
f 23//1 17//25 21//1
f 26//6 21//6 14//3
f 27//1 15//21 23//1
f 24//1 15//21 27//1
f 21//6 26//6 23//5
f 23//5 29//5 27//18
f 27//18 31//18 24//24
f 29//5 23//5 26//6
f 31//18 27//18 29//5
f 30//24 24//24 31//18
usemtl material-2
f 2//1 1//1 4//1
f 9//1 2//1 4//1
f 7//1 2//1 9//1
f 8//1 7//1 18//1
f 14//1 8//1 19//1
f 18//1 7//1 9//1
f 19//1 8//1 18//1
f 22//1 14//1 19//1
f 26//1 14//1 22//1
f 25//1 26//1 22//1
f 28//1 29//1 25//1
f 29//1 26//1 25//1
f 31//1 29//1 28//1
f 30//1 31//1 28//1