mtllib new-0.mtl
v -0.493690 -0.209808 -0.211852
v 0.468011 -0.209808 -0.211852
v 0.468011 -0.202228 -0.183560
v -0.493690 -0.204030 -0.211505
v -0.493690 -0.180379 -0.217842
v 0.468011 -0.204030 -0.211505
v -0.493690 -0.202228 -0.183560
v 0.468011 -0.201496 -0.181794
v -0.493690 -0.201496 -0.181794
v -0.493690 -0.200332 -0.180277
v -0.493690 -0.176842 -0.218790
v 0.468011 -0.181152 -0.217635
v 0.468011 -0.200332 -0.180277
v -0.493690 -0.198816 -0.179113
v -0.493690 -0.181152 -0.217635
v 0.468011 -0.193259 -0.178382
v 0.468011 -0.198816 -0.179113
v -0.493690 -0.197050 -0.178382
v -0.493690 -0.193259 -0.178382
v 0.468011 -0.195154 -0.178132
v 0.468011 -0.179223 -0.182142
v 0.468011 -0.197050 -0.178382
v -0.493690 -0.195154 -0.178132
v -0.493690 -0.179223 -0.182142
v 0.468011 -0.177457 -0.182874
v -0.493690 -0.177457 -0.182874
v 0.468011 -0.175941 -0.184038
v -0.493690 -0.175941 -0.184038
v 0.468011 -0.174045 -0.191111
v 0.468011 -0.174777 -0.185554
v -0.493690 -0.174777 -0.185554
v -0.493690 -0.174045 -0.191111
v 0.468011 -0.173796 -0.189215
v 0.468011 -0.174045 -0.187320
v -0.493690 -0.174045 -0.187320
v -0.493690 -0.173796 -0.189215
vn 0.000000 -0.258808 -0.965929
vn 0.000000 0.258808 0.965929
vn 0.000000 -0.965929 0.258808
vn 0.000000 0.965929 -0.258808
vn 0.000000 0.946934 -0.321428
vn -1.000000 0.000000 0.000000
vn 1.000000 0.000000 0.000000
vn 0.000000 0.500010 -0.866020
vn 0.000000 0.866031 -0.499990
vn 0.000000 0.707115 -0.707099
vn 0.000000 -0.866020 -0.500010
vn 0.000000 0.258831 -0.965923
vn 0.000000 -0.195079 -0.980788
vn 0.000000 0.000012 -1.000000
vn 0.000000 -0.321428 -0.946934
vn 0.000000 -0.499990 -0.866031
vn 0.000000 -0.980788 0.195079
vn 0.000000 -0.707099 -0.707115
vn 0.000000 -1.000000 -0.000012
vn 0.000000 -0.965923 -0.258831
vn 0.000000 -0.946934 0.321428
vn 0.000000 -0.500010 0.866020
vn 0.000000 -0.866031 0.499990
vn 0.000000 -0.707115 0.707099
vn 0.000000 0.866020 0.500010
vn 0.000000 -0.258831 0.965923
vn 0.000000 0.195079 0.980788
vn 0.000000 -0.000012 1.000000
vn 0.000000 0.321428 0.946934
vn 0.000000 0.499990 0.866031
vn 0.000000 0.980788 -0.195079
vn 0.000000 0.707099 0.707115
vn 0.000000 1.000000 0.000012
vn 0.000000 0.965923 0.258831
usemtl material-0
f 7//5 3//5 1//4
f 3//6 8//6 2//6
f 4//7 9//7 1//7
f 6//6 2//6 8//6
f 3//5 7//5 8//9
f 7//7 1//7 9//7
f 10//7 9//7 4//7
f 11//1 4//1 5//1
f 13//6 6//6 8//6
f 9//9 8//9 7//5
f 10//10 13//10 9//9
f 14//7 10//7 4//7
f 15//1 4//1 11//1
f 12//6 6//6 16//6
f 17//6 6//6 13//6
f 8//9 9//9 13//10
f 13//10 10//10 17//8
f 14//8 17//8 10//10
f 18//7 14//7 4//7
f 15//7 19//7 4//7
f 16//6 6//6 20//6
f 21//6 12//6 16//6
f 22//6 6//6 17//6
f 17//8 14//8 22//12
f 18//12 22//12 14//8
f 23//7 18//7 4//7
f 19//7 23//7 4//7
f 24//7 19//7 15//7
f 20//6 6//6 22//6
f 16//13 20//14 19//13
f 25//6 12//6 21//6
f 21//15 16//13 24//15
f 18//12 23//14 22//12
f 23//14 19//13 20//14
f 19//13 24//15 16//13
f 26//7 24//7 15//7
f 20//14 22//12 23//14
f 27//6 12//6 25//6
f 25//16 21//15 26//16
f 24//15 26//16 21//15
f 28//7 26//7 15//7
f 30//6 12//6 27//6
f 27//18 25//16 28//18
f 26//16 28//18 25//16
f 31//7 28//7 15//7
f 32//17 15//3 29//17
f 29//6 12//6 33//6
f 34//6 12//6 30//6
f 30//11 27//18 31//11
f 28//18 31//11 27//18
f 35//7 31//7 15//7
f 32//7 36//7 15//7
f 29//17 33//19 32//17
f 33//6 12//6 34//6
f 34//20 30//11 35//20
f 31//11 35//20 30//11
f 36//7 35//7 15//7
f 36//19 32//17 33//19
f 33//19 34//20 36//19
f 35//20 36//19 34//20
usemtl material-1
f 1//3 3//21 7//21
f 2//7 8//7 3//7
f 1//6 9//6 4//6
f 8//7 2//7 6//7
f 8//23 7//21 3//21
f 9//6 1//6 7//6
f 4//6 9//6 10//6
f 8//7 6//7 13//7
f 7//21 8//23 9//23
f 9//23 13//24 10//24
f 4//6 10//6 14//6
f 16//7 6//7 12//7
f 13//7 6//7 17//7
f 13//24 9//23 8//23
f 17//22 10//24 13//24
f 10//24 17//22 14//22
f 4//6 14//6 18//6
f 4//6 19//6 15//6
f 20//7 6//7 16//7
f 16//7 12//7 21//7
f 17//7 6//7 22//7
f 22//26 14//22 17//22
f 14//22 22//26 18//26
f 4//6 18//6 23//6
f 4//6 23//6 19//6
f 15//6 19//6 24//6
f 22//7 6//7 20//7
f 19//27 20//28 16//27
f 21//7 12//7 25//7
f 24//29 16//27 21//29
f 22//26 23//28 18//26
f 20//28 19//27 23//28
f 16//27 24//29 19//27
f 15//6 24//6 26//6
f 23//28 22//26 20//28
f 25//7 12//7 27//7
f 26//30 21//29 25//30
f 21//29 26//30 24//29
f 15//6 26//6 28//6
f 27//7 12//7 30//7
f 28//32 25//30 27//32
f 25//30 28//32 26//30
f 15//6 28//6 31//6
f 29//31 15//4 32//31
f 33//7 12//7 29//7
f 30//7 12//7 34//7
f 31//25 27//32 30//25
f 27//32 31//25 28//32
f 15//6 31//6 35//6
f 15//6 36//6 32//6
f 32//31 33//33 29//31
f 34//7 12//7 33//7
f 35//34 30//25 34//34
f 30//25 35//34 31//25
f 15//6 35//6 36//6
f 33//33 32//31 36//33
f 36//33 34//34 33//33
f 34//34 36//33 35//34
usemtl material-2
f 5//2 4//2 11//2
f 11//2 4//2 15//2