# SSTK version 0.8.0
# 8
mtllib original-8.mtl
o Component_2_1/Component_2/mesh11/mesh11-geometry#mesh11-geometry
v -0.014808 0.787001 -0.453286
v 0.468608 0.806906 -0.378999
v -0.014808 0.806906 -0.378999
v 0.468608 0.787001 -0.453286
v -0.014808 0.785681 -0.373312
v 0.468608 0.277607 -0.316794
v 0.468608 0.785681 -0.373312
v -0.014808 0.277607 -0.316794
v -0.014808 0.297512 -0.242507
v 0.468608 0.297512 -0.242507
vn 0 -0.9659258492011171 0.2588189595935749
vn 0 0.9659258492011171 -0.2588189595935749
vn 0 0.2588189595935749 0.9659258492011171
vn 0 -0.2588189595935749 -0.9659258492011171
vn -1 0 0
vn 1 0 0
usemtl material_0_0
f 1//1 2//1 3//1
f 2//1 1//1 4//1
f 3//2 2//2 1//2
f 4//2 1//2 2//2
f 1//3 6//3 4//3
f 4//4 6//4 1//4
f 6//5 2//5 4//5
f 4//6 2//6 6//6
f 6//3 1//3 8//3
f 8//4 1//4 6//4
f 2//5 6//5 7//5
f 7//6 6//6 2//6
f 9//2 6//2 8//2
f 8//1 6//1 9//1
f 7//5 6//5 10//5
f 10//6 6//6 7//6
f 6//2 9//2 10//2
f 10//1 9//1 6//1
usemtl material_1_2
f 3//3 5//3 2//3
f 2//4 5//4 3//4
f 7//3 2//3 5//3
f 5//4 2//4 7//4
