# SSTK version 0.8.0
# 3
mtllib original-3.mtl
o Component_3_2/Component_3_1_2/mesh2/mesh2-geometry#mesh2-geometry
v -0.433678 -0.136464 0.551285
v -0.433678 -0.136464 0.540298
v -0.014808 -0.136464 0.551285
v -0.014808 -0.136464 0.540298
v -0.433678 -0.163931 0.567765
v -0.014808 -0.155691 0.540298
v -0.014808 -0.163931 0.567765
v -0.421318 -0.155691 0.540298
v -0.421318 -0.290279 0.540298
v -0.014808 -0.290279 0.540298
v -0.433678 -0.290279 0.540298
v -0.421318 -0.314999 0.056881
v -0.421318 -0.306759 0.551285
v -0.014808 -0.306759 0.551285
v -0.421318 -0.155691 0.056881
v -0.433678 -0.306759 0.551285
v -0.014808 -0.314999 0.056881
v -0.421318 -0.314999 0.551285
v -0.014808 -0.314999 0.551285
v -0.014808 -0.155691 0.056881
v -0.433678 -0.314999 0.551285
v -0.014808 -0.317746 0.551285
v -0.433678 -0.317746 0.551285
vn 0 -1 0
vn 0 1 0
vn 0 -0.5144959024863144 -0.8574928374772544
vn 0 0 1
vn 0 0 -1
vn -1 0 0
vn 1 0 0
vn 0 0.5547001962252289 0.8320502943378438
vn 0 -0.5547001962252289 -0.8320502943378438
vn 0 0.5144959024863144 0.8574928374772544
usemtl material_0_0
f 1//1 2//1 3//1
f 3//2 2//2 1//2
f 4//1 3//1 2//1
f 2//2 3//2 4//2
f 1//3 3//3 5//3
f 4//4 2//4 6//4
f 6//5 2//5 4//5
f 7//3 5//3 3//3
f 6//4 2//4 8//4
f 8//5 2//5 6//5
f 8//4 2//4 9//4
f 9//5 2//5 8//5
f 6//4 8//4 10//4
f 10//5 8//5 6//5
f 11//4 9//4 2//4
f 2//5 9//5 11//5
f 9//4 10//4 8//4
f 8//5 10//5 9//5
f 8//6 12//6 9//6
f 9//7 12//7 8//7
f 9//8 11//8 13//8
f 13//9 11//9 9//9
f 10//8 9//8 14//8
f 14//9 9//9 10//9
f 15//6 12//6 8//6
f 8//7 12//7 15//7
f 9//6 12//6 13//6
f 13//7 12//7 9//7
f 16//8 13//8 11//8
f 11//9 13//9 16//9
f 13//8 14//8 9//8
f 9//9 14//9 13//9
f 12//4 17//4 15//4
f 15//5 17//5 12//5
f 18//6 13//6 12//6
f 12//7 13//7 18//7
f 13//4 16//4 18//4
f 18//5 16//5 13//5
f 14//4 13//4 19//4
f 19//5 13//5 14//5
f 12//2 18//2 17//2
f 17//1 18//1 12//1
f 20//4 15//4 17//4
f 17//5 15//5 20//5
f 18//4 19//4 13//4
f 13//5 19//5 18//5
f 21//4 18//4 16//4
f 16//5 18//5 21//5
f 19//2 17//2 18//2
f 18//1 17//1 19//1
f 18//4 21//4 19//4
f 19//5 21//5 18//5
f 19//4 21//4 22//4
f 22//5 21//5 19//5
f 23//4 22//4 21//4
f 21//5 22//5 23//5
usemtl material_1_0
f 5//10 3//10 1//10
f 3//10 5//10 7//10
