# SSTK version 0.8.0
# 6
mtllib original-6.mtl
o Component_1_2/Component_1_1_2/mesh7/mesh7-geometry#mesh7-geometry
v 0.468608 -0.394653 -0.242507
v 0.468608 -0.394653 0.284856
v -0.014808 -0.394653 -0.242507
v 0.468608 0.077777 0.131042
v -0.014808 -0.394653 0.284856
v 0.468608 0.297512 -0.242507
v 0.468608 0.297512 0.284856
v 0.468608 0.077777 -0.088693
v -0.014808 -0.328732 0.284856
v -0.014808 0.231591 -0.242507
v 0.468608 0.187644 -0.088693
v 0.468608 0.297512 0.240909
v 0.404061 -0.328732 0.284856
v 0.468608 0.099750 0.109068
v -0.014808 0.297512 -0.242507
v 0.468608 0.187644 0.131042
v 0.465862 0.297512 0.282109
v 0.404061 0.231591 0.284856
v 0.468608 0.099750 -0.066719
v 0.468608 0.165671 0.109068
v 0.404061 -0.328732 0.218936
v 0.465862 0.297512 -0.239761
v 0.465862 0.297512 0.240909
v -0.014808 0.297512 0.284856
v 0.468608 0.165671 -0.066719
v 0.446635 0.143697 -0.066719
v 0.446635 0.143697 0.109068
v -0.014808 -0.328732 0.218936
v -0.014808 0.297512 -0.239761
v -0.014808 0.297512 0.282109
v 0.465862 0.231591 -0.239761
v 0.404061 0.231591 0.282109
v -0.014808 0.231591 0.284856
v 0.446635 0.165671 0.109068
v 0.446635 0.165671 -0.066719
v -0.014808 0.297512 0.240909
v -0.014808 0.231591 0.282109
v 0.465862 0.231591 0.282109
v 0.404061 0.231591 0.218936
v -0.014808 0.231591 -0.239761
vn 0 -1 0
vn 0 1 0
vn -1 0 0
vn 1 0 0
vn 0 0 -1
vn 0 0 1
vn 0.8944269909998285 0.4472139954999092 0
vn -0.8944269909998285 -0.4472139954999092 0
usemtl material_0_2
f 1//1 2//1 3//1
f 3//2 2//2 1//2
f 1//3 2//3 4//3
f 4//4 2//4 1//4
f 5//1 3//1 2//1
f 2//2 3//2 5//2
f 1//5 3//5 6//5
f 6//6 3//6 1//6
f 7//3 4//3 2//3
f 2//4 4//4 7//4
f 8//3 1//3 4//3
f 4//4 1//4 8//4
f 5//6 2//6 9//6
f 9//5 2//5 5//5
f 10//5 6//5 3//5
f 3//6 6//6 10//6
f 1//3 11//3 6//3
f 6//4 11//4 1//4
f 12//3 4//3 7//3
f 7//4 4//4 12//4
f 7//6 13//6 2//6
f 2//5 13//5 7//5
f 11//3 1//3 8//3
f 8//4 1//4 11//4
f 13//6 9//6 2//6
f 2//5 9//5 13//5
f 15//5 6//5 10//5
f 10//6 6//6 15//6
f 11//3 16//3 6//3
f 6//4 16//4 11//4
f 4//3 12//3 16//3
f 16//4 12//4 4//4
f 12//2 17//2 7//2
f 7//1 17//1 12//1
f 18//6 13//6 7//6
f 7//5 13//5 18//5
f 13//2 21//2 9//2
f 9//1 21//1 13//1
f 15//2 22//2 6//2
f 6//1 22//1 15//1
f 6//3 16//3 12//3
f 12//4 16//4 6//4
f 17//2 12//2 23//2
f 23//1 12//1 17//1
f 24//2 7//2 17//2
f 17//1 7//1 24//1
f 13//3 18//3 21//3
f 21//4 18//4 13//4
f 24//6 18//6 7//6
f 7//5 18//5 24//5
f 28//2 9//2 21//2
f 21//1 9//1 28//1
f 29//2 22//2 15//2
f 15//1 22//1 29//1
f 22//2 23//2 6//2
f 6//1 23//1 22//1
f 12//2 6//2 23//2
f 23//1 6//1 12//1
f 17//2 23//2 30//2
f 30//1 23//1 17//1
f 23//3 31//3 17//3
f 17//4 31//4 23//4
f 30//2 24//2 17//2
f 17//1 24//1 30//1
f 32//3 21//3 18//3
f 18//4 21//4 32//4
f 33//6 18//6 24//6
f 24//5 18//5 33//5
f 22//6 29//6 31//6
f 31//5 29//5 22//5
f 22//3 31//3 23//3
f 23//4 31//4 22//4
f 36//2 30//2 23//2
f 23//1 30//1 36//1
f 30//5 17//5 37//5
f 37//6 17//6 30//6
f 38//3 17//3 31//3
f 31//4 17//4 38//4
f 39//3 21//3 32//3
f 32//4 21//4 39//4
f 32//1 18//1 37//1
f 37//2 18//2 32//2
f 33//1 37//1 18//1
f 18//2 37//2 33//2
f 40//6 31//6 29//6
f 29//5 31//5 40//5
f 37//5 17//5 32//5
f 32//6 17//6 37//6
f 38//5 32//5 17//5
f 17//6 32//6 38//6
f 31//1 38//1 40//1
f 40//2 38//2 31//2
f 37//1 40//1 32//1
f 32//2 40//2 37//2
f 32//1 40//1 38//1
f 38//2 40//2 32//2
usemtl material_1_2
f 8//4 14//4 4//4
f 4//3 14//3 8//3
f 11//4 19//4 8//4
f 8//3 19//3 11//3
f 19//4 14//4 8//4
f 8//3 14//3 19//3
f 20//4 4//4 14//4
f 14//3 4//3 20//3
f 11//4 16//4 20//4
f 20//3 16//3 11//3
f 4//4 20//4 16//4
f 16//3 20//3 4//3
f 19//4 11//4 25//4
f 25//3 11//3 19//3
f 19//7 26//7 14//7
f 14//8 26//8 19//8
f 14//5 27//5 20//5
f 20//6 27//6 14//6
f 25//4 11//4 20//4
f 20//3 11//3 25//3
f 19//6 25//6 26//6
f 26//5 25//5 19//5
f 27//7 14//7 26//7
f 26//8 14//8 27//8
f 34//5 20//5 27//5
f 27//6 20//6 34//6
f 25//1 20//1 35//1
f 35//2 20//2 25//2
f 35//6 26//6 25//6
f 25//5 26//5 35//5
f 26//4 35//4 27//4
f 27//3 35//3 26//3
f 34//1 35//1 20//1
f 20//2 35//2 34//2
f 34//4 27//4 35//4
f 35//3 27//3 34//3
