# SSTK version 0.8.0
# 9
mtllib original-9.mtl
o Component_2_2/Component_2_1_2/mesh12/mesh12-geometry#mesh12-geometry
v -0.014808 0.806906 -0.378999
v -0.498225 0.806906 -0.378999
v -0.014808 0.787001 -0.453286
v -0.014808 0.785681 -0.373312
v -0.498225 0.787001 -0.453286
v -0.498225 0.785681 -0.373312
v -0.498225 0.277607 -0.316794
v -0.014808 0.277607 -0.316794
v -0.498225 0.297512 -0.242507
v -0.014808 0.297512 -0.242507
vn 0 -0.9659258492011171 0.2588189595935749
vn 0 0.9659258492011171 -0.2588189595935749
vn 0 0.2588189595935749 0.9659258492011171
vn 0 -0.2588189595935749 -0.9659258492011171
vn 1 0 0
vn -1 0 0
usemtl material_0_0
f 1//1 2//1 3//1
f 3//2 2//2 1//2
f 5//1 3//1 2//1
f 2//2 3//2 5//2
f 5//3 7//3 3//3
f 3//4 7//4 5//4
f 5//5 2//5 7//5
f 7//6 2//6 5//6
f 6//5 7//5 2//5
f 2//6 7//6 6//6
f 8//3 3//3 7//3
f 7//4 3//4 8//4
f 9//5 7//5 6//5
f 6//6 7//6 9//6
f 8//2 7//2 10//2
f 10//1 7//1 8//1
f 9//2 10//2 7//2
f 7//1 10//1 9//1
usemtl material_1_2
f 2//3 4//3 1//3
f 1//4 4//4 2//4
f 4//3 2//3 6//3
f 6//4 2//4 4//4
