# SSTK version 0.8.0
# 2
mtllib original-2.mtl
o Component_3_1/Component_3/mesh1/mesh1-geometry#mesh1-geometry
v -0.014808 -0.136464 0.551285
v 0.404061 -0.136464 0.540298
v 0.404061 -0.136464 0.551285
v -0.014808 -0.136464 0.540298
v 0.404061 -0.163931 0.567765
v -0.014808 -0.155691 0.540298
v -0.014808 -0.163931 0.567765
v 0.391701 -0.155691 0.540298
v 0.391701 -0.290279 0.540298
v -0.014808 -0.290279 0.540298
v 0.404061 -0.290279 0.540298
v 0.391701 -0.314999 0.056881
v 0.391701 -0.306759 0.551285
v -0.014808 -0.306759 0.551285
v 0.391701 -0.155691 0.056881
v 0.404061 -0.306759 0.551285
v 0.391701 -0.314999 0.551285
v -0.014808 -0.314999 0.056881
v -0.014808 -0.314999 0.551285
v -0.014808 -0.155691 0.056881
v 0.404061 -0.314999 0.551285
v -0.014808 -0.317746 0.551285
v 0.404061 -0.317746 0.551285
vn 0 -1 0
vn 0 1 0
vn 0 -0.5144959024863144 -0.8574928374772544
vn 0 0 1
vn 0 0 -1
vn 1 0 0
vn -1 0 0
vn 0 0.5547001962252289 0.8320502943378438
vn 0 -0.5547001962252289 -0.8320502943378438
vn 0 0.5144959024863144 0.8574928374772544
usemtl material_0_0
f 1//1 2//1 3//1
f 2//1 1//1 4//1
f 3//2 2//2 1//2
f 4//2 1//2 2//2
f 5//3 1//3 3//3
f 6//4 2//4 4//4
f 4//5 2//5 6//5
f 1//3 5//3 7//3
f 8//4 2//4 6//4
f 6//5 2//5 8//5
f 9//4 2//4 8//4
f 8//5 2//5 9//5
f 10//4 8//4 6//4
f 6//5 8//5 10//5
f 2//4 9//4 11//4
f 11//5 9//5 2//5
f 8//4 10//4 9//4
f 9//5 10//5 8//5
f 9//6 12//6 8//6
f 8//7 12//7 9//7
f 13//8 11//8 9//8
f 9//9 11//9 13//9
f 14//8 9//8 10//8
f 10//9 9//9 14//9
f 13//6 12//6 9//6
f 9//7 12//7 13//7
f 8//6 12//6 15//6
f 15//7 12//7 8//7
f 11//8 13//8 16//8
f 16//9 13//9 11//9
f 9//8 14//8 13//8
f 13//9 14//9 9//9
f 12//6 13//6 17//6
f 17//7 13//7 12//7
f 15//4 18//4 12//4
f 12//5 18//5 15//5
f 17//4 16//4 13//4
f 13//5 16//5 17//5
f 19//4 13//4 14//4
f 14//5 13//5 19//5
f 13//4 19//4 17//4
f 17//5 19//5 13//5
f 18//2 17//2 12//2
f 12//1 17//1 18//1
f 18//4 15//4 20//4
f 20//5 15//5 18//5
f 16//4 17//4 21//4
f 21//5 17//5 16//5
f 19//4 21//4 17//4
f 17//5 21//5 19//5
f 17//2 18//2 19//2
f 19//1 18//1 17//1
f 22//4 21//4 19//4
f 19//5 21//5 22//5
f 21//4 22//4 23//4
f 23//5 22//5 21//5
usemtl material_1_0
f 3//10 1//10 5//10
f 7//10 5//10 1//10
